<?xml version="1.0" encoding="UTF-8"?><svg id="Lag_1" xmlns="http://www.w3.org/2000/svg" viewBox="0 0 252 453.21"><defs><style>.cls-1{font-size:28.99px;}.cls-1,.cls-2,.cls-3{fill:#fff;}.cls-4{font-size:48.83px;}.cls-4,.cls-5{fill:#48af48;}.cls-4,.cls-6{font-family:Antonio-Bold, Antonio;font-variation-settings:'wght' 700;font-weight:700;}.cls-7{fill:#0037ff;}.cls-8{fill:red;}.cls-9{fill:#303030;}.cls-10{fill:#dee2de;}.cls-11{fill:#111010;}.cls-12{fill:#37894a;}.cls-13{font-family:Antonio-Regular, Antonio;font-variation-settings:'wght' 400;}.cls-3{font-size:24.17px;}</style></defs><g id="green"><path id="baggrund" class="cls-9" d="m249,24.85v403.13c0,5.2-3.66,9.67-8.76,10.7l-29.47,5.94c-56.61,11.41-114.93,11.46-171.56.13l-30.43-6.09c-5.1-1.02-8.78-5.5-8.78-10.7V24.86c0-5.2,3.67-9.68,8.78-10.7,75.95-18.79,155.53-18.96,231.47,0,5.09,1.02,8.76,5.5,8.76,10.7Z"/><path id="top" class="cls-2" d="m60,28.91v396c-20.27.01-40.5-3.26-60-9.61V38.52c19.5-6.35,39.73-9.62,60-9.61Z"/><path id="bund" class="cls-2" d="m179,424.91V28.91c20.27-.01,40.5,3.26,60,9.61v376.78c-19.5,6.35-39.73,9.62-60,9.61Z"/><path id="midt" class="cls-5" d="m159,34.02v385.85c0,2.78-2.26,5.04-5.04,5.04H60V28.91h93.89c2.82,0,5.11,2.29,5.11,5.11Z"/><g id="stregkode"><rect x="179" y="360.91" width="45" height="15"/><rect x="179" y="306.91" width="45" height="15"/><rect x="179" y="329.91" width="45" height="12"/><rect x="179" y="284.91" width="45" height="8"/><rect x="179" y="346.91" width="45" height="8"/><rect x="179" y="245.91" width="45" height="4"/><rect x="179" y="197.91" width="45" height="4"/><rect x="179" y="173.91" width="45" height="4"/><rect x="179" y="219.91" width="45" height="4"/><rect x="179" y="297.91" width="45" height="4"/><rect x="179" y="255.91" width="45" height="11"/><rect x="179" y="162.91" width="45" height="8"/><rect x="179" y="149.91" width="45" height="8"/><rect x="179" y="226.91" width="45" height="13"/><rect x="179" y="204.91" width="45" height="13"/><rect x="179" y="180.91" width="45" height="15"/><rect x="179" y="103.91" width="45" height="15"/><rect x="179" y="122.91" width="45" height="11"/><rect x="179" y="135.91" width="45" height="11"/><rect x="179" y="76.91" width="45" height="9"/><rect x="179" y="88.91" width="45" height="9"/></g><g id="tre_farver"><path class="cls-2" d="m110,344.41v50c-.37,21.67-32.63,21.7-33,0,0,0,0-50,0-50,.37-21.67,32.63-21.7,33,0Z"/><path class="cls-8" d="m93.5,383.91c11.03-.16,11.03,17.16,0,17-11.03.16-11.03-17.16,0-17Z"/><path class="cls-12" d="m93.5,360.91c11.03-.16,11.03,17.16,0,17-11.03.16-11.03-17.16,0-17Z"/><path class="cls-7" d="m93.5,337.91c11.03-.16,11.03,17.16,0,17-11.03.16-11.03-17.16,0-17Z"/></g><g id="_sol_"><path class="cls-2" d="m131.5,180.12c10.75-.16,10.75,16.73,0,16.57-10.75.16-10.75-16.73,0-16.57Z"/><path class="cls-2" d="m117,188.41c-.11-1.51,3.82-.59,4.56-.83.46,0,.83.37.83.83.11,1.51-3.82.59-4.56.83-.46,0-.83-.37-.83-.83Z"/><path class="cls-2" d="m140.61,188.41c-.11-1.51,3.82-.59,4.56-.83.46,0,.83.37.83.83.11,1.51-3.82.59-4.56.83-.46,0-.83-.37-.83-.83Z"/><path class="cls-2" d="m131.5,173.91c1.51-.11.59,3.82.83,4.56,0,.46-.37.83-.83.83-1.51.11-.59-3.82-.83-4.56,0-.46.37-.83.83-.83Z"/><path class="cls-2" d="m123.11,176.76c1.25-.85,2.42,3.01,3,3.53.23.4.09.9-.3,1.13-1.25.85-2.42-3.01-3-3.53-.23-.4-.09-.9.3-1.13Z"/><path class="cls-2" d="m137.61,195.4c1.25-.85,2.42,3.01,3,3.53.23.4.09.9-.3,1.13-1.25.85-2.42-3.01-3-3.53-.23-.4-.09-.9.3-1.13Z"/><path class="cls-2" d="m121.9,199.38c-1.22-.89,2-3.3,2.3-4.02.29-.35.82-.4,1.17-.1,1.22.89-2,3.3-2.3,4.02-.29.35-.82.4-1.17.1Z"/><path class="cls-2" d="m137.22,181.56c-1.22-.89,2-3.3,2.3-4.02.29-.35.82-.4,1.17-.1,1.22.89-2,3.3-2.3,4.02-.29.35-.82.4-1.17.1Z"/><path class="cls-2" d="m131.5,197.52c1.51-.11.59,3.82.83,4.56,0,.46-.37.83-.83.83-1.51.11-.59-3.82-.83-4.56,0-.46.37-.83.83-.83Z"/></g><text class="cls-3" transform="translate(104.48 258.91) rotate(-90) scale(1.48 1)"><tspan class="cls-13" x="0" y="0">35mm color </tspan><tspan class="cls-6" x="111.04" y="0">film</tspan></text><text class="cls-1" transform="translate(141.98 166.91) rotate(-90) scale(1.36 1)"><tspan class="cls-6" x="0" y="0">200 </tspan><tspan class="cls-13" x="47.25" y="0">ISO</tspan></text><text class="cls-4" transform="translate(54.81 322.69) rotate(-90) scale(1.2 1)"><tspan x="0" y="0">GLITCH ART</tspan></text><path class="cls-11" d="m252,26.91v399c0,7.18-5.82,13-13,13V13.91c7.18,0,13,5.82,13,13Z"/><path class="cls-5" d="m16.86,376.13l26.29,15.18c4.82,2.79,10.86-.7,10.86-6.27v-30.36c0-5.57-6.03-9.05-10.86-6.27l-26.29,15.18c-4.82,2.79-4.82,9.75,0,12.53Z"/><path class="cls-2" d="m37.08,360.18c11.93-.17,11.93,18.56,0,18.38-11.93.17-11.93-18.56,0-18.38Z"/><polygon class="cls-10" points="0 415.3 7.34 417.53 7.34 36.3 0 38.52 0 415.3"/></g></svg>