<?xml version="1.0" encoding="UTF-8"?><svg id="Lag_1" xmlns="http://www.w3.org/2000/svg" viewBox="0 0 252 453.21"><defs><style>.cls-1{font-size:28.99px;}.cls-1,.cls-2,.cls-3{fill:#fff;}.cls-4{font-size:48.83px;}.cls-4,.cls-5{fill:#e237e2;}.cls-4,.cls-6{font-family:Antonio-Bold, Antonio;font-variation-settings:'wght' 700;font-weight:700;}.cls-7{fill:#0037ff;}.cls-8{fill:red;}.cls-9{fill:#303030;}.cls-10{fill:#dee2de;}.cls-11{fill:#111010;}.cls-12{fill:#37894a;}.cls-13{font-family:Antonio-Regular, Antonio;font-variation-settings:'wght' 400;}.cls-14{letter-spacing:0em;}.cls-3{font-size:24.17px;}</style></defs><g id="green"><path id="baggrund" class="cls-9" d="m3,428.37V25.24c0-5.2,3.66-9.67,8.76-10.7l29.47-5.94c56.61-11.41,114.93-11.46,171.56-.13l30.43,6.09c5.1,1.02,8.78,5.5,8.78,10.7v403.1c0,5.2-3.67,9.68-8.78,10.7-75.95,18.79-155.53,18.96-231.47,0-5.09-1.02-8.76-5.5-8.76-10.7Z"/><path id="top" class="cls-2" d="m192,424.3V28.3c20.27-.01,40.5,3.26,60,9.61v376.78c-19.5,6.35-39.73,9.62-60,9.61Z"/><path id="bund" class="cls-2" d="m73,28.3v396c-20.27.01-40.5-3.26-60-9.61V37.91c19.5-6.35,39.73-9.62,60-9.61Z"/><path id="midt" class="cls-5" d="m93,419.19V33.34c0-2.78,2.26-5.04,5.04-5.04h93.96v396h-93.89c-2.82,0-5.11-2.29-5.11-5.11Z"/><g id="stregkode"><rect x="28" y="77.3" width="45" height="15"/><rect x="28" y="131.3" width="45" height="15"/><rect x="28" y="111.3" width="45" height="12"/><rect x="28" y="160.3" width="45" height="8"/><rect x="28" y="98.3" width="45" height="8"/><rect x="28" y="203.3" width="45" height="4"/><rect x="28" y="251.3" width="45" height="4"/><rect x="28" y="275.3" width="45" height="4"/><rect x="28" y="229.3" width="45" height="4"/><rect x="28" y="151.3" width="45" height="4"/><rect x="28" y="186.3" width="45" height="11"/><rect x="28" y="282.3" width="45" height="8"/><rect x="28" y="295.3" width="45" height="8"/><rect x="28" y="213.3" width="45" height="13"/><rect x="28" y="235.3" width="45" height="13"/><rect x="28" y="257.3" width="45" height="15"/><rect x="28" y="334.3" width="45" height="15"/><rect x="28" y="319.3" width="45" height="11"/><rect x="28" y="306.3" width="45" height="11"/><rect x="28" y="367.3" width="45" height="9"/><rect x="28" y="355.3" width="45" height="9"/></g><g id="tre_farver"><path class="cls-2" d="m142,108.8v-50c.37-21.67,32.63-21.7,33,0,0,0,0,50,0,50-.37,21.67-32.63,21.7-33,0Z"/><path class="cls-8" d="m158.5,69.3c-11.03.16-11.03-17.16,0-17,11.03-.16,11.03,17.16,0,17Z"/><path class="cls-12" d="m158.5,92.3c-11.03.16-11.03-17.16,0-17,11.03-.16,11.03,17.16,0,17Z"/><path class="cls-7" d="m158.5,115.3c-11.03.16-11.03-17.16,0-17,11.03-.16,11.03,17.16,0,17Z"/></g><g id="_sol_"><path class="cls-2" d="m120.5,273.09c-10.75.16-10.75-16.73,0-16.57,10.75-.16,10.75,16.73,0,16.57Z"/><path class="cls-2" d="m135,264.8c.11,1.51-3.82.59-4.56.83-.46,0-.83-.37-.83-.83-.11-1.51,3.82-.59,4.56-.83.46,0,.83.37.83.83Z"/><path class="cls-2" d="m111.39,264.8c.11,1.51-3.82.59-4.56.83-.46,0-.83-.37-.83-.83-.11-1.51,3.82-.59,4.56-.83.46,0,.83.37.83.83Z"/><path class="cls-2" d="m120.5,279.3c-1.51.11-.59-3.82-.83-4.56,0-.46.37-.83.83-.83,1.51-.11.59,3.82.83,4.56,0,.46-.37.83-.83.83Z"/><path class="cls-2" d="m128.89,276.46c-1.25.85-2.42-3.01-3-3.53-.23-.4-.09-.9.3-1.13,1.25-.85,2.42,3.01,3,3.53.23.4.09.9-.3,1.13Z"/><path class="cls-2" d="m114.39,257.81c-1.25.85-2.42-3.01-3-3.53-.23-.4-.09-.9.3-1.13,1.25-.85,2.42,3.01,3,3.53.23.4.09.9-.3,1.13Z"/><path class="cls-2" d="m130.1,253.83c1.22.89-2,3.3-2.3,4.02-.29.35-.82.4-1.17.1-1.22-.89,2-3.3,2.3-4.02.29-.35.82-.4,1.17-.1Z"/><path class="cls-2" d="m114.78,271.65c1.22.89-2,3.3-2.3,4.02-.29.35-.82.4-1.17.1-1.22-.89,2-3.3,2.3-4.02.29-.35.82-.4,1.17-.1Z"/><path class="cls-2" d="m120.5,255.69c-1.51.11-.59-3.82-.83-4.56,0-.46.37-.83.83-.83,1.51-.11.59,3.82.83,4.56,0,.46-.37.83-.83.83Z"/></g><text class="cls-3" transform="translate(147.52 194.3) rotate(90) scale(1.48 1)"><tspan class="cls-13" x="0" y="0">35mm color </tspan><tspan class="cls-6" x="111.04" y="0">film</tspan></text><text class="cls-1" transform="translate(110.02 286.3) rotate(90) scale(1.36 1)"><tspan class="cls-6" x="0" y="0">200 </tspan><tspan class="cls-13" x="47.25" y="0">ISO</tspan></text><text class="cls-4" transform="translate(197.19 130.52) rotate(90) scale(1.2 1)"><tspan x="0" y="0">ANA</tspan><tspan class="cls-14" x="69.7" y="0">L</tspan><tspan x="87.15" y="0">OG FOTO</tspan></text><path class="cls-11" d="m0,426.3V27.3c0-7.18,5.82-13,13-13v425c-7.18,0-13-5.82-13-13Z"/><path class="cls-5" d="m235.14,77.09l-26.29-15.18c-4.82-2.79-10.86.7-10.86,6.27v30.36c0,5.57,6.03,9.05,10.86,6.27l26.29-15.18c4.82-2.79,4.82-9.75,0-12.53Z"/><path class="cls-2" d="m214.92,93.03c-11.93.17-11.93-18.56,0-18.38,11.93-.17,11.93,18.56,0,18.38Z"/><polygon class="cls-10" points="252 37.91 244.66 35.69 244.66 416.92 252 414.69 252 37.91"/></g></svg>