<?xml version="1.0" encoding="UTF-8"?><svg id="Lag_1" xmlns="http://www.w3.org/2000/svg" viewBox="0 0 453.21 252"><defs><style>.cls-1{font-size:28.99px;}.cls-1,.cls-2,.cls-3{fill:#fff;}.cls-4{font-size:48.83px;}.cls-4,.cls-5{fill:#48ad48;}.cls-4,.cls-6{font-family:Antonio-Bold, Antonio;font-variation-settings:'wght' 700;font-weight:700;}.cls-7{fill:#0037ff;}.cls-8{fill:red;}.cls-9{fill:#303030;}.cls-10{fill:#dce0dc;}.cls-11{fill:#111010;}.cls-12{fill:#37874a;}.cls-13{font-family:Antonio-Regular, Antonio;font-variation-settings:'wght' 400;}.cls-3{font-size:24.17px;}</style></defs><g id="green"><path id="baggrund" class="cls-9" d="m428.37,249H25.24c-5.2,0-9.67-3.66-10.7-8.76l-5.94-29.47c-11.41-56.61-11.46-114.93-.13-171.56l6.09-30.43C15.57,3.67,20.05,0,25.25,0h403.1c5.2,0,9.68,3.67,10.7,8.78,18.79,75.95,18.96,155.53,0,231.47-1.02,5.09-5.5,8.76-10.7,8.76Z"/><path id="top" class="cls-2" d="m424.3,60H28.3C28.29,39.73,31.57,19.5,37.91,0h376.78c6.35,19.5,9.62,39.73,9.61,60Z"/><path id="bund" class="cls-2" d="m28.3,179h396c.01,20.27-3.26,40.5-9.61,60H37.91c-6.35-19.5-9.62-39.73-9.61-60Z"/><path id="midt" class="cls-5" d="m419.19,159H33.34c-2.78,0-5.04-2.26-5.04-5.04V60h396v93.89c0,2.82-2.29,5.11-5.11,5.11Z"/><g id="stregkode"><rect x="77.3" y="179" width="15" height="45"/><rect x="131.3" y="179" width="15" height="45"/><rect x="111.3" y="179" width="12" height="45"/><rect x="160.3" y="179" width="8" height="45"/><rect x="98.3" y="179" width="8" height="45"/><rect x="203.3" y="179" width="4" height="45"/><rect x="251.3" y="179" width="4" height="45"/><rect x="275.3" y="179" width="4" height="45"/><rect x="229.3" y="179" width="4" height="45"/><rect x="151.3" y="179" width="4" height="45"/><rect x="186.3" y="179" width="11" height="45"/><rect x="282.3" y="179" width="8" height="45"/><rect x="295.3" y="179" width="8" height="45"/><rect x="213.3" y="179" width="13" height="45"/><rect x="235.3" y="179" width="13" height="45"/><rect x="257.3" y="179" width="15" height="45"/><rect x="334.3" y="179" width="15" height="45"/><rect x="319.3" y="179" width="11" height="45"/><rect x="306.3" y="179" width="11" height="45"/><rect x="367.3" y="179" width="9" height="45"/><rect x="355.3" y="179" width="9" height="45"/></g><g id="tre_farver"><path class="cls-2" d="m108.8,110h-50c-21.67-.37-21.7-32.63,0-33,0,0,50,0,50,0,21.67.37,21.7,32.63,0,33Z"/><path class="cls-8" d="m69.3,93.5c.16,11.03-17.16,11.03-17,0-.16-11.03,17.16-11.03,17,0Z"/><path class="cls-12" d="m92.3,93.5c.16,11.03-17.16,11.03-17,0-.16-11.03,17.16-11.03,17,0Z"/><path class="cls-7" d="m115.3,93.5c.16,11.03-17.16,11.03-17,0-.16-11.03,17.16-11.03,17,0Z"/></g><g id="_sol_"><path class="cls-2" d="m273.09,131.5c.16,10.75-16.73,10.75-16.57,0-.16-10.75,16.73-10.75,16.57,0Z"/><path class="cls-2" d="m264.8,117c1.51-.11.59,3.82.83,4.56,0,.46-.37.83-.83.83-1.51.11-.59-3.82-.83-4.56,0-.46.37-.83.83-.83Z"/><path class="cls-2" d="m264.8,140.61c1.51-.11.59,3.82.83,4.56,0,.46-.37.83-.83.83-1.51.11-.59-3.82-.83-4.56,0-.46.37-.83.83-.83Z"/><path class="cls-2" d="m279.3,131.5c.11,1.51-3.82.59-4.56.83-.46,0-.83-.37-.83-.83-.11-1.51,3.82-.59,4.56-.83.46,0,.83.37.83.83Z"/><path class="cls-2" d="m276.46,123.11c.85,1.25-3.01,2.42-3.53,3-.4.23-.9.09-1.13-.3-.85-1.25,3.01-2.42,3.53-3,.4-.23.9-.09,1.13.3Z"/><path class="cls-2" d="m257.81,137.61c.85,1.25-3.01,2.42-3.53,3-.4.23-.9.09-1.13-.3-.85-1.25,3.01-2.42,3.53-3,.4-.23.9-.09,1.13.3Z"/><path class="cls-2" d="m253.83,121.9c.89-1.22,3.3,2,4.02,2.3.35.29.4.82.1,1.17-.89,1.22-3.3-2-4.02-2.3-.35-.29-.4-.82-.1-1.17Z"/><path class="cls-2" d="m271.65,137.22c.89-1.22,3.3,2,4.02,2.3.35.29.4.82.1,1.17-.89,1.22-3.3-2-4.02-2.3-.35-.29-.4-.82-.1-1.17Z"/><path class="cls-2" d="m255.69,131.5c.11,1.51-3.82.59-4.56.83-.46,0-.83-.37-.83-.83-.11-1.51,3.82-.59,4.56-.83.46,0,.83.37.83.83Z"/></g><text class="cls-3" transform="translate(194.3 104.48) scale(1.48 1)"><tspan class="cls-13" x="0" y="0">35mm color </tspan><tspan class="cls-6" x="111.04" y="0">film</tspan></text><text class="cls-1" transform="translate(286.3 141.98) scale(1.36 1)"><tspan class="cls-6" x="0" y="0">200 </tspan><tspan class="cls-13" x="47.25" y="0">ISO</tspan></text><text class="cls-4" transform="translate(130.52 54.81) scale(1.2 1)"><tspan x="0" y="0">STOCK-FOTOS</tspan></text><path class="cls-11" d="m426.3,252H27.3c-7.18,0-13-5.82-13-13h425c0,7.18-5.82,13-13,13Z"/><path class="cls-5" d="m77.09,16.86l-15.18,26.29c-2.79,4.82.7,10.86,6.27,10.86h30.36c5.57,0,9.05-6.03,6.27-10.86l-15.18-26.29c-2.79-4.82-9.75-4.82-12.53,0Z"/><path class="cls-2" d="m93.03,37.08c.17,11.93-18.56,11.93-18.38,0-.17-11.93,18.56-11.93,18.38,0Z"/><polygon class="cls-10" points="37.91 0 35.69 7.34 416.92 7.34 414.69 0 37.91 0"/></g></svg>